#!OML:ASF E:\emotionWalksFemale\Project 1\Capture day 1\Session 1\Female1.ASF
:FULLY-SPECIFIED
:DEGREES
3714
root 9.06002 14.4121 0.357477 371.833 8.72313 -5.47469
lowerback 18.8846 2.6132 -2.60174
upperback -0.768811 2.81679 -0.520153
thorax -11.5929 1.45477 0.101727
lowerneck -5.15886 -8.03065 -8.6345
upperneck -7.97178 -9.81186 15.1525
head -0.247876 -4.87922 5.756
rclavicle 2.14687e-014 7.95139e-016
rhumerus -12.692 22.8606 -86.4409
rradius 36.5138
rwrist 14.2683
rhand -2.18889 -43.9513
rfingers 7.12502
rthumb 23.4922 -72.5369
lclavicle 2.14687e-014 7.95139e-016
lhumerus -10.6681 -39.0634 99.4614
lradius 41.3621
lwrist -15.849
lhand -11.1163 -34.8076
lfingers 7.12502
lthumb 14.9084 -5.3641
rfemur -38.131 -8.26119 14.7518
rtibia 121.754
rfoot 42.9253 14.1949
rtoes 15.1239
lfemur -42.4588 -23.0721 -15.5614
ltibia 61.0794
lfoot -31.247 -2.33287
ltoes -28.4648
3715
root 9.05251 14.4376 0.394317 371.715 9.00019 -5.47016
lowerback 18.5675 2.48741 -2.61061
upperback -0.81167 2.65965 -0.51757
thorax -11.4557 1.38319 0.166375
lowerneck -5.00628 -7.98486 -8.79066
upperneck -7.94738 -9.75609 15.1426
head -0.264801 -4.85213 5.78645
rclavicle 9.14409e-015 1.35174e-014
rhumerus -14.0231 21.8615 -86.4416
rradius 35.7142
rwrist 14.1602
rhand -3.19243 -44.2414
rfingers 7.12502
rthumb 22.5293 -72.9471
lclavicle 9.14409e-015 1.35174e-014
lhumerus -10.56 -41.405 99.5679
lradius 42.4378
lwrist -16.0261
lhand -12.5258 -35.1606
lfingers 7.12502
lthumb 13.5502 -5.62151
rfemur -38.4926 -7.9549 14.3077
rtibia 121.644
rfoot 42.6174 14.4222
rtoes 14.525
lfemur -41.9464 -22.9857 -15.6032
ltibia 60.5999
lfoot -30.4666 -3.98871
ltoes -22.0376
3716
root 9.04166 14.4712 0.440911 371.537 9.41099 -5.51021
lowerback 18.4795 2.3213 -2.6018
upperback -1.00678 2.44674 -0.482687
thorax -11.621 1.28663 0.257981
lowerneck -5.28221 -7.97326 -8.95631
upperneck -7.21535 -9.79057 14.9845
head -0.00571601 -4.83732 5.73117
rclavicle 2.54444e-014 -1.43125e-014
rhumerus -15.6761 20.5863 -86.4731
rradius 34.8855
rwrist 14.7638
rhand -3.95997 -44.1039
rfingers 7.12502
rthumb 21.7924 -72.897
lclavicle 2.54444e-014 -1.43125e-014
lhumerus -10.831 -43.658 99.8856
lradius 43.4475
lwrist -15.577
lhand -11.0176 -35.4498
lfingers 7.12502
lthumb 15.0035 -6.01337
rfemur -38.5521 -7.88492 13.9863
rtibia 121.319
rfoot 42.2614 14.3987
rtoes 14.882
lfemur -41.336 -23.0939 -15.569
ltibia 60.0869
lfoot -29.7088 -5.59401
ltoes -15.0034
3717
root 9.02872 14.5013 0.483861 371.305 9.6569 -5.58323
lowerback 18.5291 2.24467 -2.54991
upperback -1.20991 2.34698 -0.531588
thorax -11.8726 1.23691 0.195532
lowerneck -5.70017 -8.01095 -8.80888
upperneck -6.36501 -9.90887 14.5711
head 0.287805 -4.86318 5.53626
rclavicle -4.29375e-014 4.69132e-014
rhumerus -17.2618 18.8814 -86.4799
rradius 34.0175
rwrist 15.472
rhand -4.8445 -44.048
rfingers 7.12502
rthumb 20.9428 -72.9374
lclavicle -4.29375e-014 4.69132e-014
lhumerus -11.3447 -45.5958 100.268
lradius 44.6476
lwrist -15.0763
lhand -9.88354 -35.3801
lfingers 7.12502
lthumb 16.0958 -6.02859
rfemur -38.6262 -7.65646 13.7705
rtibia 120.953
rfoot 41.877 14.5239
rtoes 14.7374
lfemur -40.678 -23.0985 -15.5418
ltibia 59.5943
lfoot -29.3719 -6.29295
ltoes -12.308
3718
root 9.01645 14.5279 0.522496 371.09 9.78232 -5.6324
lowerback 18.4559 2.24817 -2.51933
upperback -1.31109 2.3535 -0.585365
thorax -11.9419 1.23691 0.116683
lowerneck -5.77774 -8.03248 -8.54543
upperneck -6.07327 -9.97899 14.036
head 0.344462 -4.89211 5.31857
rclavicle -4.6118e-014 4.53229e-014
rhumerus -18.4966 17.2663 -86.1755
rradius 33.1227
rwrist 15.8606
rhand -5.4335 -44.6176
rfingers 7.12502
rthumb 20.3769 -73.5685
lclavicle -4.6118e-014 4.53229e-014
lhumerus -11.8076 -47.2493 100.601
lradius 46.0272
lwrist -15.0895
lhand -10.2693 -35.4221
lfingers 7.12502
lthumb 15.7243 -6.04092
rfemur -38.847 -7.33388 13.563
rtibia 120.546
rfoot 41.4555 14.8556
rtoes 14.2924
lfemur -40.0278 -23.0392 -15.57
ltibia 59.1281
lfoot -29.3419 -6.33351
ltoes -12.7384
3719
root 9.00955 14.5563 0.559278 370.895 9.90473 -5.73518
lowerback 18.397 2.21626 -2.36065
upperback -1.4526 2.34292 -0.620114
thorax -12.06 1.22157 -0.0105159
lowerneck -5.64003 -8.01828 -8.4838
upperneck -5.95729 -9.98506 13.7085
head 0.332121 -4.8974 5.21263
rclavicle 2.98177e-014 -3.97569e-015
rhumerus -19.7393 15.7784 -85.7507
rradius 32.2139
rwrist 16.6722
rhand -5.38286 -45.8434
rfingers 7.12502
rthumb 20.4255 -74.7891
lclavicle 2.98177e-014 -3.97569e-015
lhumerus -12.3456 -48.9883 100.902
lradius 47.4179
lwrist -14.7191
lhand -10.7504 -35.6957
lfingers 7.12502
lthumb 15.261 -6.2787
rfemur -39.1274 -7.00963 13.4691
rtibia 120.029
rfoot 40.9917 15.0492
rtoes 14.1402
lfemur -39.4318 -23.0706 -15.5299
ltibia 58.6867
lfoot -29.8244 -5.46069
ltoes -18.0806
3720
root 9.00563 14.5868 0.602246 370.577 10.0104 -5.94721
lowerback 18.3333 2.13391 -2.19466
upperback -1.56732 2.27736 -0.572348
thorax -12.1471 1.1831 -0.0338564
lowerneck -5.50456 -7.9202 -8.67832
upperneck -5.75124 -9.86953 13.7061
head 0.367364 -4.83663 5.24906
rclavicle -9.14409e-015 -1.74931e-014
rhumerus -21.0001 14.4321 -85.2613
rradius 31.3668
rwrist 17.963
rhand -5.05808 -46.7344
rfingers 7.12502
rthumb 20.7376 -75.6463
lclavicle -9.14409e-015 -1.74931e-014
lhumerus -13.0952 -50.0182 101.346
lradius 48.8529
lwrist -14.2531
lhand -10.7342 -36.1068
lfingers 7.12502
lthumb 15.2765 -6.69098
rfemur -39.2357 -6.65353 13.5727
rtibia 119.349
rfoot 40.2186 15.1895
rtoes 13.7375
lfemur -38.6832 -23.1737 -15.4314
ltibia 58.2495
lfoot -30.709 -3.85278
ltoes -25.7825
3721
root 8.99953 14.6183 0.651681 370.228 10.0745 -6.14119
lowerback 18.0196 2.07542 -2.2766
upperback -1.5412 2.20994 -0.417624
thorax -11.9437 1.16399 0.214411
lowerneck -5.45731 -7.7837 -8.82491
upperneck -5.57796 -9.69644 13.6227
head 0.393192 -4.74563 5.25423
rclavicle -5.56597e-015 -5.56597e-015
rhumerus -21.9941 13.5897 -84.5788
rradius 30.4904
rwrist 19.2471
rhand -4.84626 -47.2586
rfingers 7.12502
rthumb 20.9411 -76.1482
lclavicle -5.56597e-015 -5.56597e-015
lhumerus -13.5865 -50.4029 101.764
lradius 50.2196
lwrist -13.985
lhand -10.3153 -36.4728
lfingers 7.12502
lthumb 15.68 -7.08809
rfemur -39.1695 -6.27458 13.7139
rtibia 118.548
rfoot 39.1966 15.4799
rtoes 13.1253
lfemur -37.8164 -23.2901 -15.3782
ltibia 57.8001
lfoot -30.9558 -3.33683
ltoes -27.4336
3722
root 8.99331 14.6478 0.698734 369.929 10.1446 -6.23272
lowerback 17.7325 2.0187 -2.38978
upperback -1.49571 2.13314 -0.299752
thorax -11.7329 1.1401 0.440534
lowerneck -5.62895 -7.73972 -8.73515
upperneck -5.28096 -9.65806 13.2245
head 0.473872 -4.71612 5.10842
rclavicle -5.96354e-015 -2.3059e-014
rhumerus -22.8586 12.8491 -83.8509
rradius 29.5531
rwrist 20.6452
rhand -4.8525 -48.0514
rfingers 7.12502
rthumb 20.9351 -76.9416
lclavicle -5.96354e-015 -2.3059e-014
lhumerus -13.7776 -51.073 101.993
lradius 51.4781
lwrist -13.217
lhand -10.5119 -36.4061
lfingers 7.12502
lthumb 15.4906 -7.00671
rfemur -39.1101 -6.03854 13.7614
rtibia 117.73
rfoot 38.0975 16.0716
rtoes 12.1308
lfemur -36.9929 -23.5056 -15.3897
ltibia 57.3431
lfoot -30.4566 -4.1521
ltoes -22.5608
3723
root 8.98605 14.6699 0.738791 369.703 10.1463 -6.35485
lowerback 17.5705 1.97508 -2.37133
upperback -1.55308 2.08705 -0.270596
thorax -11.703 1.11925 0.478654
lowerneck -5.84038 -7.733 -8.47951
upperneck -4.89538 -9.68257 12.7422
head 0.580657 -4.71879 4.90444
rclavicle 8.34896e-015 -1.98785e-014
rhumerus -23.816 11.7239 -83.1855
rradius 28.6551
rwrist 22.4413
rhand -4.57842 -48.9095
rfingers 7.12502
rthumb 21.1984 -77.7704
lclavicle 8.34896e-015 -1.98785e-014
lhumerus -14.2912 -51.7023 102.28
lradius 52.7869
lwrist -12.3062
lhand -11.2573 -36.5254
lfingers 7.12502
lthumb 14.7726 -7.07185
rfemur -39.3787 -5.84997 13.9145
rtibia 116.979
rfoot 36.8428 16.8231
rtoes 10.3999
lfemur -36.335 -23.7308 -15.3139
ltibia 56.9147
lfoot -30.112 -4.55755
ltoes -19.1659
3724
root 8.97599 14.6881 0.775611 369.514 10.0491 -6.49945
lowerback 17.3735 1.94459 -2.37333
upperback -1.6934 2.04724 -0.301129
thorax -11.7452 1.10115 0.459888
lowerneck -5.48017 -7.59052 -8.18411
upperneck -4.92278 -9.52754 12.4703
head 0.467971 -4.65793 4.79903
rclavicle 9.54166e-015 4.77083e-015
rhumerus -24.8907 10.592 -82.6174
rradius 27.8276
rwrist 24.574
rhand -3.56756 -49.9897
rfingers 7.12502
rthumb 22.1692 -78.7385
lclavicle 9.54166e-015 4.77083e-015
lhumerus -15.2106 -51.9965 102.692
lradius 54.1091
lwrist -11.5375
lhand -11.8606 -37.068
lfingers 7.12502
lthumb 14.1913 -7.57273
rfemur -39.8571 -5.56492 14.1525
rtibia 116.265
rfoot 35.321 17.5611
rtoes 8.4806
lfemur -35.746 -23.9146 -15.1914
ltibia 56.5009
lfoot -30.062 -4.36114
ltoes -19.2922
3725
root 8.96519 14.7097 0.815948 369.241 9.92066 -6.63815
lowerback 17.2164 1.943 -2.3725
upperback -1.83219 2.04444 -0.33867
thorax -11.8096 1.09985 0.420415
lowerneck -5.12064 -7.45415 -8.01503
upperneck -4.81518 -9.38317 12.3227
head 0.410156 -4.59792 4.74633
rclavicle 4.67144e-014 -4.77083e-015
rhumerus -26.0698 9.6387 -81.9948
rradius 27.1709
rwrist 26.4513
rhand -2.53959 -50.8067
rfingers 7.12502
rthumb 23.1558 -79.4349
lclavicle 4.67144e-014 -4.77083e-015
lhumerus -16.3012 -52.1801 103.225
lradius 55.4997
lwrist -10.8125
lhand -12.2698 -37.2975
lfingers 7.12502
lthumb 13.797 -7.77504
rfemur -40.1913 -5.22611 14.4335
rtibia 115.478
rfoot 33.3989 18.3868
rtoes 6.482
lfemur -35.016 -24.1726 -15.1143
ltibia 56.073
lfoot -30.0339 -4.08825
ltoes -19.2171
3726
root 8.9551 14.7355 0.858457 369.015 9.6971 -6.71679
lowerback 16.9978 2.02106 -2.50944
upperback -1.92206 2.12891 -0.309074
thorax -11.7938 1.15075 0.512195
lowerneck -5.21418 -7.38435 -8.14989
upperneck -4.36972 -9.31208 12.2755
head 0.551946 -4.55028 4.74296
rclavicle -2.60408e-014 -1.98785e-014
rhumerus -27.0873 8.76312 -81.1487
rradius 26.5347
rwrist 28.0482
rhand -1.80218 -50.8587
rfingers 7.12502
rthumb 23.8631 -79.3963
lclavicle -2.60408e-014 -1.98785e-014
lhumerus -17.1704 -52.301 103.737
lradius 56.8688
lwrist -9.94841
lhand -12.9576 -36.9129
lfingers 7.12502
lthumb 13.1341 -7.34653
rfemur -40.5673 -4.86676 14.7195
rtibia 114.615
rfoot 31.398 19.0447
rtoes 5.76572
lfemur -34.2636 -24.516 -15.1174
ltibia 55.6113
lfoot -29.8771 -4.03119
ltoes -16.6285
3727
root 8.94728 14.7632 0.901046 368.801 9.42872 -6.76495
lowerback 16.6792 2.07706 -2.7349
upperback -1.95682 2.17279 -0.257239
thorax -11.6606 1.18865 0.694182
lowerneck -5.20836 -7.24752 -8.26374
upperneck -4.15734 -9.13872 12.2363
head 0.598693 -4.45898 4.75333
rclavicle 3.69739e-014 1.27222e-014
rhumerus -27.9215 7.77669 -80.2628
rradius 25.8533
rwrist 29.8984
rhand -0.914456 -50.7813
rfingers 7.12502
rthumb 24.7142 -79.205
lclavicle 3.69739e-014 1.27222e-014
lhumerus -17.8027 -52.2184 103.994
lradius 58.121
lwrist -8.90882
lhand -13.0037 -36.7451
lfingers 7.12502
lthumb 13.0897 -7.17584
rfemur -40.9516 -4.5345 15.0089
rtibia 113.676
rfoot 27.8057 19.3824
rtoes -1.94631
lfemur -33.472 -24.8503 -15.1882
ltibia 55.1045
lfoot -29.7782 -3.93167
ltoes -14.1045
3728
root 8.94089 14.7892 0.944088 368.526 9.14331 -6.87624
lowerback 16.4334 2.12173 -2.78112
upperback -2.00827 2.2273 -0.288531
thorax -11.5782 1.21659 0.6781
lowerneck -5.04654 -7.15962 -8.06828
upperneck -4.00633 -9.0517 12.0077
head 0.586118 -4.42107 4.6605
rclavicle -9.93923e-016 -2.38542e-014
rhumerus -28.9375 6.4941 -79.436
rradius 25.412
rwrist 31.8297
rhand 0.0987875 -50.9247
rfingers 7.12502
rthumb 25.685 -79.2118
lclavicle -9.93923e-016 -2.38542e-014
lhumerus -18.7986 -52.2089 104.224
lradius 59.5246
lwrist -7.58846
lhand -11.4232 -37.3884
lfingers 7.12502
lthumb 14.6128 -7.92316
rfemur -41.2915 -4.17017 15.4181
rtibia 112.696
rfoot 26.0112 19.7022
rtoes -1.29012
lfemur -32.5862 -25.0806 -15.2525
ltibia 54.5676
lfoot -30.2624 -2.4081
ltoes -20.1062
